HIERARCHY
ROOT Hips
{
	OFFSET 0.000000 0.000000 0.000000
	CHANNELS 6 Xposition Yposition Zposition Xrotation Yrotation Zrotation
	JOINT LeftUpLeg_virtual
	{
		OFFSET 0.000000 0.000000 0.000000
		CHANNELS 3 Xrotation Yrotation Zrotation
		JOINT LeftUpLeg
		{
			OFFSET 15.427100 -6.655098 0.678600
			CHANNELS 3 Xrotation Yrotation Zrotation
			JOINT LeftLeg
			{
				OFFSET 4.081073 -39.591068 13.024000
				CHANNELS 3 Xrotation Yrotation Zrotation
				JOINT LeftFoot
				{
					OFFSET -4.081074 -37.707932 -15.979700
					CHANNELS 3 Xrotation Yrotation Zrotation
					JOINT LeftToeBase
					{
						OFFSET 5.346399 -15.068900 20.645000
						CHANNELS 3 Xrotation Yrotation Zrotation
						JOINT LeftToe_End
						{
							OFFSET 2.754700 0.931300 11.300900
							CHANNELS 3 Xrotation Yrotation Zrotation
							End Site
							{
								OFFSET 0 0 0
							}
						}
					}
				}
			}
		}
	}
	JOINT RightUpLeg_virtual
	{
		OFFSET 0.000000 0.000000 0.000000
		CHANNELS 3 Xrotation Yrotation Zrotation
		JOINT RightUpLeg
		{
			OFFSET -15.569500 -6.655098 0.678600
			CHANNELS 3 Xrotation Yrotation Zrotation
			JOINT RightLeg
			{
				OFFSET -4.081825 -39.591045 13.023800
				CHANNELS 3 Xrotation Yrotation Zrotation
				JOINT RightFoot
				{
					OFFSET 4.081824 -37.707954 -15.979600
					CHANNELS 3 Xrotation Yrotation Zrotation
					JOINT RightToeBase
					{
						OFFSET -5.346400 -15.068900 20.645000
						CHANNELS 3 Xrotation Yrotation Zrotation
						JOINT RightToe_End
						{
							OFFSET -2.754700 0.931300 11.300900
							CHANNELS 3 Xrotation Yrotation Zrotation
							End Site
							{
								OFFSET 0 0 0
							}
						}
					}
				}
			}
		}
	}
	JOINT Spine_virtual
	{
		OFFSET 0.000000 0.000000 0.000000
		CHANNELS 3 Xrotation Yrotation Zrotation
		JOINT Spine
		{
			OFFSET -0.279200 12.230698 -2.892100
			CHANNELS 3 Xrotation Yrotation Zrotation
			JOINT Spine1
			{
				OFFSET -0.232667 10.192268 -1.242267
				CHANNELS 3 Xrotation Yrotation Zrotation
				JOINT Spine1_split
				{
					OFFSET -0.232667 10.192268 -1.242267
					CHANNELS 3 Xrotation Yrotation Zrotation
					JOINT Spine2
					{
						OFFSET -0.232667 10.192268 -1.242267
						CHANNELS 3 Xrotation Yrotation Zrotation
						JOINT Neck_virtual
						{
							OFFSET 0.000000 0.000000 0.000000
							CHANNELS 3 Xrotation Yrotation Zrotation
							JOINT Neck
							{
								OFFSET -0.418800 17.814194 8.416900
								CHANNELS 3 Xrotation Yrotation Zrotation
								JOINT Head
								{
									OFFSET 0.000000 7.031097 3.806800
									CHANNELS 3 Xrotation Yrotation Zrotation
									JOINT HeadTop_End
									{
										OFFSET 0.000000 24.646606 12.978600
										CHANNELS 3 Xrotation Yrotation Zrotation
										End Site
										{
											OFFSET 0 0 0
										}
									}
								}
							}
						}
						JOINT LeftShoulder_virtual
						{
							OFFSET 0.000000 0.000000 0.000000
							CHANNELS 3 Xrotation Yrotation Zrotation
							JOINT LeftShoulder
							{
								OFFSET 8.476499 7.247704 -3.868750
								CHANNELS 3 Xrotation Yrotation Zrotation
								JOINT LeftShoulder_split
								{
									OFFSET 8.476499 7.247704 -3.868750
									CHANNELS 3 Xrotation Yrotation Zrotation
									JOINT LeftArm
									{
										OFFSET 9.308998 -2.777710 0.208600
										CHANNELS 3 Xrotation Yrotation Zrotation
										JOINT LeftForeArm
										{
											OFFSET 29.972298 0.000000 0.000000
											CHANNELS 3 Xrotation Yrotation Zrotation
											JOINT LeftHand
											{
												OFFSET 26.026505 0.000000 0.000000
												CHANNELS 3 Xrotation Yrotation Zrotation
												End Site
												{
													OFFSET 0 0 0
												}
											}
										}
									}
								}
							}
						}
						JOINT RightShoulder_virtual
						{
							OFFSET 0.000000 0.000000 0.000000
							CHANNELS 3 Xrotation Yrotation Zrotation
							JOINT RightShoulder
							{
								OFFSET -7.570500 7.247704 -3.868750
								CHANNELS 3 Xrotation Yrotation Zrotation
								JOINT RightShoulder_split
								{
									OFFSET -7.570500 7.247704 -3.868750
									CHANNELS 3 Xrotation Yrotation Zrotation
									JOINT RightArm
									{
										OFFSET -9.308998 -2.777710 0.208500
										CHANNELS 3 Xrotation Yrotation Zrotation
										JOINT RightForeArm
										{
											OFFSET -29.972300 0.000000 0.000000
											CHANNELS 3 Xrotation Yrotation Zrotation
											JOINT RightHand
											{
												OFFSET -26.026505 0.000000 0.000000
												CHANNELS 3 Xrotation Yrotation Zrotation
												End Site
												{
													OFFSET 0 0 0
												}
											}
										}
									}
								}
							}
						}
					}
				}
			}
		}
	}
}
MOTION
Frames: 10
Frame Time: 0.03333333
0.008964 204.406433 1.056690 0.000000 0.000000 0.000000 -4.884654 5.996327 7.141653 -11.983352 18.772167 10.218870 10.326569 -3.747726 -1.303221 -13.125839 -0.858042 -1.279539 -1.748767 -0.666369 -1.822409 0.000000 0.000000 0.000000 -2.982476 2.480795 6.273583 -1.308099 -3.968719 -8.078652 12.350034 3.613776 2.617739 -22.717416 -4.549358 2.484648 -8.652412 0.144660 -1.841211 0.000000 0.000000 0.000000 -0.618705 3.195873 5.608101 1.939159 -0.835468 1.908098 10.550240 -0.714305 3.652083 1.409310 1.655366 0.222451 0.000000 0.000000 0.000000 9.654871 -0.929993 3.180646 0.117692 0.536836 -4.397280 7.981647 8.140585 -7.906814 0.000000 0.000000 0.000000 11.002145 -0.982708 2.876239 0.272479 16.101456 -9.014126 -0.805181 -2.040605 -0.555258 1.756270 -12.573668 -60.364693 -0.585415 -48.325856 0.471430 0.000000 0.000000 0.000000 11.251592 -0.483900 3.341838 2.313770 2.775565 7.623084 0.607932 0.784396 -1.160478 -1.977139 7.916373 56.917992 1.590918 38.445820 -1.516946 0.000000 0.000000 0.000000 
-0.148696 204.409088 0.916824 0.000000 0.000000 0.000000 -4.795141 6.294785 7.067042 -12.191278 18.334407 10.382869 10.354230 -3.261387 -1.052390 -13.179723 -0.459884 -1.034136 -1.718461 -0.651317 -2.083679 0.000000 0.000000 0.000000 -2.776970 2.676309 6.083351 -1.419322 -4.170868 -7.941647 11.859255 3.444727 2.653499 -22.530935 -4.754823 2.381066 -8.925563 0.096518 -1.728071 0.000000 0.000000 0.000000 -0.451684 2.889096 5.650950 1.900696 -0.889869 1.888402 10.586631 -0.716622 3.573822 1.018326 1.606844 -0.003202 0.000000 0.000000 0.000000 9.634123 -0.928713 3.127019 -0.370351 0.499926 -4.572027 8.058741 7.847916 -7.757069 0.000000 0.000000 0.000000 11.012041 -0.953283 2.796139 0.269131 15.952108 -8.558058 -1.183090 -1.484596 -0.777752 1.111014 -12.661314 -60.343219 -0.681632 -48.357736 0.299510 0.000000 0.000000 0.000000 11.308733 -0.519595 3.245569 2.250287 2.662747 7.572958 0.370918 0.633514 -1.064973 -2.057359 8.013233 56.724154 1.510251 40.009681 -1.358639 0.000000 0.000000 0.000000 
-0.319654 204.158966 0.713280 0.000000 0.000000 0.000000 -4.414026 6.511100 6.820694 -12.792988 17.954762 10.638027 10.714210 -2.510695 -0.790100 -13.766319 0.311682 -0.474574 -1.992408 -0.640197 -2.041124 0.000000 0.000000 0.000000 -2.252540 2.744945 5.812888 -1.968122 -4.311745 -7.780514 12.154585 3.349304 2.747139 -23.211829 -4.888236 2.355032 -9.196882 0.074538 -1.641212 0.000000 0.000000 0.000000 0.075150 2.539550 5.640313 1.912876 -0.763843 1.923169 10.619123 -0.697553 3.456106 0.783902 1.343912 -0.175180 0.000000 0.000000 0.000000 9.661521 -0.898730 3.030352 -1.098175 0.525456 -4.802193 7.584731 7.290091 -7.265515 0.000000 0.000000 0.000000 10.912954 -0.905001 2.699559 0.193746 15.651691 -7.806446 -1.463481 -1.106485 -1.007643 0.491672 -12.849977 -60.265129 -0.474726 -48.873784 0.264513 0.000000 0.000000 0.000000 11.328579 -0.535683 3.115754 2.189963 2.604618 7.262531 0.076232 0.183034 -0.896441 -1.401627 9.198977 56.110482 1.499018 42.267492 -1.220640 0.000000 0.000000 0.000000 
-0.457310 203.673950 0.372551 0.000000 0.000000 0.000000 -3.856873 6.698192 6.463118 -13.873465 17.572159 10.766805 11.586576 -1.720849 -0.549948 -14.727544 1.180535 0.116880 -2.410846 -0.638800 -1.676978 0.000000 0.000000 0.000000 -1.581360 2.826542 5.499269 -2.822328 -4.265384 -7.658976 12.986989 3.274748 2.797115 -24.867069 -4.952273 2.367126 -9.159102 0.085780 -1.656318 0.000000 0.000000 0.000000 0.908014 2.321306 5.558657 1.986781 -0.531412 2.009379 10.674156 -0.710127 3.340199 0.704617 0.997093 -0.359127 0.000000 0.000000 0.000000 9.760986 -0.893815 2.911064 -1.930949 0.588112 -5.009011 6.568027 6.584290 -6.509373 0.000000 0.000000 0.000000 10.777477 -0.887890 2.606451 0.069649 15.175569 -6.928275 -1.510915 -0.972869 -1.194045 -0.209338 -13.093456 -60.004831 -0.108865 -49.623718 0.282266 0.000000 0.000000 0.000000 11.295676 -0.570774 2.984846 2.116108 2.702692 6.806119 -0.071380 -0.364062 -0.789424 -0.109542 11.305536 55.080005 1.571540 44.933513 -1.134732 0.000000 0.000000 0.000000 
-0.440834 203.053009 -0.107517 0.000000 0.000000 0.000000 -3.214847 7.024589 6.087754 -15.522848 17.156395 10.598725 13.107516 -1.175833 -0.352619 -15.726377 1.891539 0.330854 -2.649437 -0.654145 -1.096614 0.000000 0.000000 0.000000 -0.937781 3.000345 5.218595 -3.723487 -3.945868 -7.620971 14.073895 3.128978 2.770511 -27.188681 -4.944400 2.414927 -8.664422 0.145625 -1.785680 0.000000 0.000000 0.000000 1.904309 2.383683 5.425044 2.122912 -0.319474 2.108247 10.773600 -0.812921 3.252644 0.666065 0.675496 -0.417390 0.000000 0.000000 0.000000 9.944700 -0.968968 2.811047 -2.679779 0.658392 -5.093670 5.146673 5.798092 -5.600838 0.000000 0.000000 0.000000 10.693668 -0.948991 2.533738 -0.045086 14.527773 -6.073490 -1.199528 -0.843358 -1.273563 -0.865404 -13.415426 -59.376938 0.251115 -50.613857 0.286571 0.000000 0.000000 0.000000 11.244920 -0.678374 2.892503 2.015742 3.006981 6.293765 -0.123895 -0.917589 -0.918093 1.730718 14.098909 53.550999 1.696990 47.913282 -1.106121 0.000000 0.000000 0.000000 
-0.273838 202.412567 -0.477135 0.000000 0.000000 0.000000 -2.573867 7.650201 5.798478 -17.710330 16.800640 10.019407 15.258909 -0.975055 -0.257769 -16.388460 2.322474 -0.039409 -2.586148 -0.669701 -0.443823 0.000000 0.000000 0.000000 -0.330592 3.333180 5.022107 -4.471863 -3.393949 -7.678137 15.058142 2.874636 2.690340 -29.533328 -4.904556 2.588574 -7.980248 0.250045 -1.997956 0.000000 0.000000 0.000000 2.906923 2.859471 5.255839 2.230406 -0.250642 2.201997 10.950803 -1.031580 3.225051 0.775600 0.486863 -0.234790 0.000000 0.000000 0.000000 10.225326 -1.142014 2.751944 -3.213178 0.721774 -5.050511 3.446791 4.940573 -4.669510 0.000000 0.000000 0.000000 10.753686 -1.107099 2.504141 -0.095821 13.695080 -5.435809 -0.769501 -0.554401 -1.173791 -1.360743 -13.692800 -58.252361 0.485440 -51.805971 0.245469 0.000000 0.000000 0.000000 11.239697 -0.871043 2.860755 1.912347 3.497086 5.809571 0.153531 -1.163374 -1.336791 3.909839 17.183827 51.430860 1.805766 51.436741 -1.083008 0.000000 0.000000 0.000000 
-0.078808 201.899567 -0.666870 0.000000 0.000000 0.000000 -1.971267 8.395076 5.673616 -20.137252 16.574023 9.123769 17.668393 -0.989379 -0.264019 -16.561619 2.459757 -0.702578 -2.315417 -0.681920 0.176482 0.000000 0.000000 0.000000 0.296397 3.864480 4.946319 -5.055195 -2.754939 -7.860208 15.617238 2.532514 2.622614 -31.238953 -4.839653 3.088645 -7.779019 0.399786 -2.220300 0.000000 0.000000 0.000000 3.804061 3.661721 5.050524 2.318512 -0.377621 2.248161 11.251088 -1.340247 3.263573 0.996319 0.065267 0.104116 0.000000 0.000000 0.000000 10.646362 -1.407968 2.761050 -3.466706 0.748929 -4.932645 1.586239 3.972478 -3.789364 0.000000 0.000000 0.000000 11.016434 -1.355791 2.541402 -0.101815 12.721907 -5.033183 -0.258351 -0.058121 -0.853816 -1.637242 -13.884383 -56.720445 0.563491 -53.407172 0.223537 0.000000 0.000000 0.000000 11.346808 -1.156971 2.902538 1.803160 3.995119 5.356325 0.731518 -1.141740 -1.835948 6.095520 20.281688 48.831181 1.879335 55.727660 -1.096380 0.000000 0.000000 0.000000 
0.203865 201.566864 -0.757751 0.000000 0.000000 0.000000 -1.325648 9.123716 5.717448 -22.410414 16.646240 8.009512 19.870748 -1.010088 -0.390657 -16.680992 2.301021 -1.054266 -1.825558 -0.719276 0.683055 0.000000 0.000000 0.000000 1.107101 4.482643 4.948604 -5.449076 -2.229877 -8.159629 15.584023 2.152525 2.579263 -32.112186 -4.759181 3.839934 -8.312124 0.573383 -2.357355 0.000000 0.000000 0.000000 4.559979 4.598096 4.841382 2.408098 -0.651856 2.205815 11.715267 -1.640471 3.367500 1.109689 -0.373549 0.328778 0.000000 0.000000 0.000000 11.270248 -1.683942 2.866543 -3.451196 0.731141 -4.805602 -0.360722 2.960533 -3.031759 0.000000 0.000000 0.000000 11.536815 -1.613818 2.652766 -0.080307 11.686224 -4.854448 0.144423 0.496048 -0.334738 -1.524720 -14.111907 -55.016142 0.598113 -55.590333 0.303850 0.000000 0.000000 0.000000 11.688162 -1.477949 3.015416 1.710776 4.401200 4.829727 1.191693 -0.917674 -2.350103 8.136980 23.143174 45.840955 1.802014 60.643255 -1.026386 0.000000 0.000000 0.000000 
0.477787 201.405121 -0.815048 0.000000 0.000000 0.000000 -0.665988 9.770039 5.879931 -24.198069 17.013356 6.816177 21.300068 -0.857116 -0.659460 -17.073747 1.863797 -0.661033 -1.510527 -0.777729 1.174129 0.000000 0.000000 0.000000 2.134362 5.086518 5.001282 -5.665202 -2.040166 -8.476815 15.165047 1.646926 2.563074 -32.565509 -4.683224 4.381794 -8.794755 0.707594 -2.335422 0.000000 0.000000 0.000000 5.276068 5.428708 4.633144 2.520438 -0.978573 2.039448 12.366969 -1.818505 3.516044 0.918096 -0.567147 0.249743 0.000000 0.000000 0.000000 12.086002 -1.874602 3.053572 -3.386228 0.662094 -4.773064 -2.401523 1.976420 -2.388648 0.000000 0.000000 0.000000 12.295871 -1.780559 2.827659 -0.045814 10.657609 -4.796810 0.512437 0.782848 0.124661 -1.162231 -14.339374 -53.432181 0.745357 -58.091777 0.525703 0.000000 0.000000 0.000000 12.314006 -1.732037 3.179826 1.657221 4.632322 4.257686 1.339725 -0.542742 -2.836051 9.852214 25.653342 42.635031 1.525263 65.591686 -0.815410 0.000000 0.000000 0.000000 
0.709640 201.293671 -0.787376 0.000000 0.000000 0.000000 0.121351 10.238115 6.028318 -25.518227 17.592248 5.678212 21.898773 -0.530713 -1.017449 -17.803419 1.280150 0.532788 -1.619439 -0.849459 1.757482 0.000000 0.000000 0.000000 3.338322 5.358841 5.069264 -6.003865 -2.225710 -8.761537 14.838714 0.993693 2.633054 -33.154643 -4.615095 4.492562 -8.596419 0.760839 -2.176848 0.000000 0.000000 0.000000 6.116678 5.896103 4.478639 2.664946 -1.241202 1.709055 13.201381 -1.796142 3.666152 0.560921 -0.620452 0.011956 0.000000 0.000000 0.000000 13.033715 -1.907737 3.278298 -3.478405 0.575980 -4.818053 -4.556512 1.118974 -1.773512 0.000000 0.000000 0.000000 13.289024 -1.778052 3.028380 -0.029120 9.745551 -4.587926 1.080864 0.731348 0.465764 -0.608546 -14.495374 -52.220222 0.987316 -60.481735 0.852574 0.000000 0.000000 0.000000 13.237167 -1.817469 3.351226 1.584033 4.616796 3.638149 1.285200 -0.025846 -3.053874 11.267870 27.937495 39.411230 1.129179 69.771147 -0.562035 0.000000 0.000000 0.000000 
